# xmcd
# 
# Track frame offsets:
#     150
#     16738
#     32968
#     55693
#     77315
#     92920
#     108528
#     123674
#     138988
#     160386
#     175547
#     191569
#     209339
#     226922
#     244150
#     260893
#     278191
#     294997
#     314082
#     327776
# 
# Disc length: 4575
# 
# Revision: 3
# Processed by: cddbd v1.5.2PL0 Copyright (c) Steve Scherf et al.
# Submitted via: fre:ac v1.0.17
# 
DISCID=1d11dd14
DTITLE=Various Artist - Ultimate 80 CD 4
DYEAR=2003
DGENRE=Top 40
TTITLE0=Boys Town Gang - Can't Take My Eyes Off You
TTITLE1=Tina Turner - Let's Stay Together
TTITLE2=Ray Charles and Dee Dee Bridgewater - Precious Thing
TTITLE3=Joe Cocker - Don't You Love Me Anymore
TTITLE4=Dennis Edwards - Don't Look Any Further
TTITLE5=Maze - Joy And Pain
TTITLE6=Oliver Cheatham - Get Down Saturday Night
TTITLE7=Grace Jones - I'm Not Perfect
TTITLE8=Bobby Mc Ferrin - Don't Worry Be Happy
TTITLE9=Matt Bianco - Yeah Yeah
TTITLE10=Johnny Hates Jazz - I Don't Want To Be A Hero
TTITLE11=Moon Ray - Comanchero
TTITLE12=Sandra - Maria Magdalena
TTITLE13=David Christie - Saddle Up
TTITLE14=Baltimora - Tarzan Boy
TTITLE15=Gloria Gaynor - I Am What I Am
TTITLE16=William Pitt - City Lights
TTITLE17=Phil Fearon and Galaxy - Dancing Tight
TTITLE18=Robbie Nevil - C'Est La Vie
TTITLE19=Dana Dawson - Ready To Follow You
EXTD=YEAR: 2003
EXTT0=
EXTT1=
EXTT2=
EXTT3=
EXTT4=
EXTT5=
EXTT6=
EXTT7=
EXTT8=
EXTT9=
EXTT10=
EXTT11=
EXTT12=
EXTT13=
EXTT14=
EXTT15=
EXTT16=
EXTT17=
EXTT18=
EXTT19=
PLAYORDER=
